<svg xmlns="http://www.w3.org/2000/svg" width="15" height="12" viewBox="0 0 15 12">
    <g>
        <path d="M978.709 3376.584a.7.7 0 0 1-.5-.22.776.776 0 0 1 0-1.06l4.495-4.72-4.495-4.719a.776.776 0 0 1 0-1.06.689.689 0 0 1 1.01 0l5 5.248a.778.778 0 0 1 0 1.062l-5 5.249a.694.694 0 0 1-.51.22z" transform="rotate(180 490.497 1688.292) translate(-3.429)"/>
        <path d="M974.567 3373.084h-12.858a.751.751 0 0 1 0-1.5h12.857a.751.751 0 0 1 0 1.5z" transform="rotate(180 490.497 1688.292) translate(5 -1.751)"/>
    </g>
</svg>
