<svg xmlns="http://www.w3.org/2000/svg" width="77.632" height="62.632" viewBox="0 0 77.632 62.632">
    <defs>
        <style>
            .cls-1,.cls-2{fill:none;stroke:#fff;stroke-miterlimit:10;stroke-width:2.632px}.cls-2{stroke-linecap:square}
        </style>
    </defs>
    <g id="ic_1" transform="translate(-2647.712 -1359.592)">
        <path id="사각형_34" d="M0 0H75V60H0z" class="cls-1" transform="translate(2649.028 1360.908)"/>
        <path id="선_3" d="M0 0L67.054 0" class="cls-1" transform="translate(2649.028 1369.199)"/>
        <path id="선_4" d="M0 0L2.704 0" class="cls-1" transform="translate(2653.734 1365.1)"/>
        <path id="선_5" d="M0 0L2.704 0" class="cls-1" transform="translate(2659.141 1365.1)"/>
        <path id="선_6" d="M0 0L2.704 0" class="cls-1" transform="translate(2664.549 1365.1)"/>
        <path id="패스_69" d="M2716.749 1385.078v-5.143h-5.139" class="cls-2" transform="translate(-.423 -.113)"/>
        <path id="패스_70" d="M2654.653 1415.224l25.654-25.675 13.271 13.282 21.4-21.415" class="cls-1" transform="translate(-.038 -.122)"/>
        <path id="선_7" d="M0 0L0 3.604" class="cls-2" transform="translate(2660.176 1417.305)"/>
        <path id="선_8" d="M0 0L0 9.143" class="cls-2" transform="translate(2666.874 1411.765)"/>
        <path id="선_9" d="M0 0L0 15.982" class="cls-2" transform="translate(2673.571 1404.927)"/>
        <path id="선_10" d="M0 0L0 21.787" class="cls-2" transform="translate(2680.269 1399.121)"/>
        <path id="선_11" d="M0 0L0 15.982" class="cls-2" transform="translate(2686.966 1404.927)"/>
        <path id="선_12" d="M0 0L0 11.613" class="cls-2" transform="translate(2693.664 1409.295)"/>
        <path id="선_13" d="M0 0L0 15.982" class="cls-2" transform="translate(2700.361 1404.927)"/>
        <path id="선_14" d="M0 0L0 21.787" class="cls-2" transform="translate(2707.059 1399.121)"/>
        <path id="선_15" d="M0 0L0 29.076" class="cls-2" transform="translate(2713.757 1391.833)"/>
    </g>
</svg>
