<svg xmlns="http://www.w3.org/2000/svg" width="77.632" height="77.638" viewBox="0 0 77.632 77.638">
    <defs>
        <style>
            .cls-1,.cls-2{fill:none;stroke:#fff;stroke-miterlimit:10;stroke-width:2.632px}.cls-1{stroke-linecap:square}
        </style>
    </defs>
    <g id="ic_2" transform="translate(-2649.625 -1197.93)">
        <path id="패스_71" d="M2715.479 1241.766h4.45v-11.544h-4.376a33.371 33.371 0 0 0-5.562-13.626l3.037-3.036-8.163-8.163-3 3a26.941 26.941 0 0 0-6.869-3.649" class="cls-1" transform="translate(6.011 .751)"/>
        <path id="패스_72" d="M2678.859 1263.619v4.621h11.541v-4.621a33.62 33.62 0 0 0 25.311-20.357" class="cls-1" transform="translate(3.809 6.012)"/>
        <path id="패스_73" d="M2655.317 1227.164h-4.377v11.544h4.45a33.4 33.4 0 0 0 5.659 13.455l-3.208 3.208 8.163 8.163 3.243-3.243a33.448 33.448 0 0 0 8.015 4.115" class="cls-1" transform="translate(0 3.815)"/>
        <path id="패스_74" d="M2693.486 1203.452v-4.206h-11.545v4.206a33.408 33.408 0 0 0-13.661 5.7l-3-3-8.163 8.163 3.037 3.036a24.814 24.814 0 0 0-3.879 7.367" class="cls-1" transform="translate(.728)"/>
        <ellipse id="타원_6" cx="25.184" cy="25.187" class="cls-2" rx="25.184" ry="25.187" transform="translate(2663.257 1211.355)"/>
        <path id="선_16" d="M0 0L9.815 0" class="cls-2" transform="translate(2683.533 1250.2)"/>
        <path id="선_17" d="M0 0L9.815 0" class="cls-2" transform="translate(2683.533 1222.883)"/>
        <text id="_3_" fill="#fff" font-family="Arial-BoldMT, Arial" font-size="17px" font-weight="700" transform="translate(2675.943 1241.521)">
            <tspan x="0" y="0">3%</tspan>
        </text>
    </g>
</svg>
