<svg xmlns="http://www.w3.org/2000/svg" width="77.632" height="88.722" viewBox="0 0 77.632 88.722">
    <defs>
        <style>
            .cls-1,.cls-2{fill:none}.cls-1{stroke:#fff;stroke-linecap:square;stroke-miterlimit:10;stroke-width:2.632px}.cls-3{fill:#fff}.cls-4{fill:#036eb8}
        </style>
    </defs>
    <g id="ic_3" transform="translate(-2925.031 -1195.139)">
        <g id="그룹_21" transform="translate(2926.347 1197)">
            <path id="패스_64" d="M2991.376 1217.842a37.931 37.931 0 0 1-20.657 55.172" class="cls-1" transform="translate(-2921.598 -1194.586)"/>
            <path id="패스_65" d="M2960.247 1201.239a37.223 37.223 0 0 1 27.065 11.648" class="cls-1" transform="translate(-2922.719 -1196.509)"/>
            <path id="패스_66" d="M2963.043 1197l-4.692 4.73 4.692 4.73" class="cls-1" transform="translate(-2922.922 -1197)"/>
            <path id="패스_67" d="M2963.819 1276.628a37.813 37.813 0 0 1-10.357-74.079" class="cls-1" transform="translate(-2926.347 -1196.358)"/>
            <path id="패스_68" d="M2957.853 1274.158l4.693-4.73-4.693-4.73" class="cls-1" transform="translate(-2922.975 -1189.158)"/>
        </g>
        <g id="그룹_22" transform="translate(2942.235 1221.019)">
            <path id="패스_1" d="M423.934 671.937l4.424 4.414 2.717-2.715-7.141-7.125-7.218 7.2 2.717 2.715z" class="cls-2" transform="translate(-402.244 -659.255)"/>
            <path id="패스_2" d="M391.063 692.934L380.6 703.37v5.43l13.176-13.147z" class="cls-2" transform="translate(-378.254 -676.816)"/>
            <path id="패스_3" d="M398.2 708.739l-2.764-2.761-14.836 14.805v.981h4.564l1.661-1.66z" class="cls-2" transform="translate(-378.254 -685.486)"/>
            <path id="패스_4" d="M380.6 661.775v17.568l8.8-8.778z" class="cls-2" transform="translate(-378.254 -656.107)"/>
            <path id="사각형_2" d="M0 0H4.015V3.906H0z" class="cls-2" transform="rotate(-45 32.16 -13.337)"/>
            <path id="패스_5" d="M478.116 661.775l-8.72 8.713 8.72 8.7z" class="cls-2" transform="translate(-437.242 -656.107)"/>
            <path id="패스_6" d="M404.1 730.526h22.751l-11.375-11.365z" class="cls-2" transform="translate(-393.864 -694.248)"/>
            <path id="패스_7" d="M442.939 708.586l11.375 11.365 1.661 1.66h4.564v-1.135l-14.76-14.728z" class="cls-2" transform="translate(-419.666 -685.333)"/>
            <path id="패스_8" d="M456.352 695.419l13.1 13.07v-5.425L459.069 692.7z" class="cls-2" transform="translate(-428.576 -676.664)"/>
            <path id="패스_9" d="M451.4 702.458l14.76 14.728v-3.318l-13.1-13.07z" class="cls-3" transform="translate(-425.288 -682.044)"/>
            <path id="패스_10" d="M429.311 686.007l2.763 2.757 1.661-1.66-4.424-4.414-4.5 4.491 1.661 1.66z" class="cls-3" transform="translate(-407.622 -670.008)"/>
            <path id="패스_11" d="M393.78 701.028l-13.18 13.147v3.318l14.837-14.805z" class="cls-3" transform="translate(-378.254 -682.196)"/>
            <path id="패스_12" d="M389.4 687.984l-8.8 8.778v3.318l10.459-10.436z" class="cls-3" transform="translate(-378.254 -673.527)"/>
            <path id="패스_13" d="M420.645 659.936l7.141 7.125 1.661-1.66-8.8-8.783-8.88 8.86 1.662 1.66z" class="cls-3" transform="translate(-398.956 -652.68)"/>
            <path id="패스_14" d="M474.828 699.774v-3.318l-8.72-8.7-1.661 1.66z" class="cls-3" transform="translate(-433.954 -673.374)"/>
            <path id="패스_15" d="M407.238 714.211l-11.375 11.365-1.661 1.66h3.323l11.375-11.365z" class="cls-3" transform="translate(-387.287 -690.958)"/>
            <path id="패스_16" d="M439.651 714.211l-1.661 1.66 11.375 11.366h3.323l-1.661-1.66z" class="cls-3" transform="translate(-416.378 -690.958)"/>
            <g id="그룹_1">
                <path id="사각형_3" d="M0 0H3.842V2.35H0z" class="cls-3" transform="rotate(-45.04 33.656 -22.93)"/>
                <path id="사각형_4" d="M0 0H4.016V2.35H0z" class="cls-3" transform="rotate(-45.04 36.826 -15.256)"/>
                <path id="사각형_5" d="M0 0H2.35V3.842H0z" class="cls-3" transform="rotate(-44.96 25.863 -7.415)"/>
                <path id="사각형_6" d="M0 0H2.35V3.907H0z" class="cls-3" transform="rotate(-45 33.33 -10.502)"/>
                <path id="패스_17" d="M412.817 648.883L404.1 657.6l1.663 1.659 8.72-8.713v30.611h-38.53v-30.614l8.8 8.79 1.663-1.659-8.8-8.791-4.011-4.008V683.5h43.224v-38.625z" class="cls-3" transform="translate(-373.604 -644.875)"/>
            </g>
            <g id="그룹_2" transform="translate(11.148 12.721)">
                <path id="사각형_7" d="M0 0H2.35V2.35H0z" class="cls-4" transform="rotate(-45.04 13.924 -13.02)"/>
                <path id="사각형_8" d="M0 0H2.35V2.35H0z" class="cls-4" transform="rotate(-45.001 10.845 -20.515)"/>
                <path id="사각형_9" d="M0 0H2.35V2.35H0z" class="cls-4" transform="rotate(-45 9.567 -2.229)"/>
                <path id="사각형_10" d="M0 0H2.35V2.35H0z" class="cls-4" transform="rotate(-45 2.097 .869)"/>
                <path id="사각형_11" d="M0 0H2.35V2.35H0z" class="cls-4" transform="rotate(-45 17.115 -5.36)"/>
            </g>
        </g>
    </g>
</svg>
