<svg xmlns="http://www.w3.org/2000/svg" width="120" height="117" viewBox="0 0 120 117">
    <defs>
        <style>
            .cls-2{fill:#fff}
        </style>
    </defs>
    <g id="ic_github" transform="translate(-290.221 -58.431)">
        <path id="패스_75" fill="#fff" fill-rule="evenodd" d="M350.221 58.431a59.985 59.985 0 0 0-18.968 116.9c3 .554 4.1-1.3 4.1-2.886 0-1.429-.056-6.155-.081-11.167-16.692 3.629-20.214-7.077-20.214-7.077-2.729-6.932-6.662-8.776-6.662-8.776-5.444-3.723.41-3.646.41-3.646 6.025.423 9.2 6.182 9.2 6.182 5.351 9.169 14.036 6.519 17.46 4.986.539-3.877 2.093-6.524 3.809-8.022-13.327-1.516-27.336-6.66-27.336-29.643a23.208 23.208 0 0 1 6.182-16.1c-.623-1.512-2.677-7.611.581-15.874 0 0 5.038-1.611 16.5 6.149a56.9 56.9 0 0 1 30.049 0c11.452-7.76 16.484-6.149 16.484-6.149 3.266 8.263 1.211 14.363.588 15.874a23.163 23.163 0 0 1 6.175 16.1c0 23.039-14.036 28.11-27.4 29.6 2.152 1.862 4.07 5.512 4.07 11.108 0 8.026-.07 14.485-.07 16.46 0 1.6 1.08 3.467 4.121 2.878a59.987 59.987 0 0 0-19-116.889z"/>
        <path id="패스_76" d="M313.093 145.134c-.133.3-.6.391-1.035.185s-.684-.607-.542-.907.6-.4 1.04-.189.689.611.537.911zm-.743-.55" class="cls-2" transform="translate(0 -.584)"/>
        <path id="패스_77" d="M315.539 147.863c-.288.266-.851.142-1.233-.279a.923.923 0 0 1-.177-1.255c.3-.267.843-.142 1.239.279s.472.984.171 1.255zm-.576-.618" class="cls-2" transform="translate(-.155 -.601)"/>
        <path id="패스_78" d="M317.92 151.34c-.37.258-.975.017-1.349-.52s-.37-1.182.008-1.44.971-.025 1.35.507.369 1.191-.009 1.453zm0 0" class="cls-2" transform="translate(-.17 -.624)"/>
        <path id="패스_79" d="M321.182 154.7c-.331.365-1.036.266-1.552-.232a1.161 1.161 0 0 1-.343-1.543c.335-.365 1.044-.262 1.564.232s.684 1.181.331 1.543zm0 0" class="cls-2" transform="translate(-.189 -.787)"/>
        <path id="패스_80" d="M325.682 156.652c-.146.472-.825.687-1.509.486s-1.13-.761-.992-1.238.824-.7 1.513-.485 1.13.755.988 1.237zm0 0" class="cls-2" transform="translate(-.216 -.794)"/>
        <path id="패스_81" d="M330.624 157.013c.017.5-.563.911-1.281.92s-1.306-.387-1.314-.877.567-.911 1.289-.924 1.306.387 1.306.881zm0 0" class="cls-2" transform="translate(-.248 -.794)"/>
        <path id="패스_82" d="M335.223 156.231c.086.485-.413.984-1.126 1.117s-1.35-.172-1.439-.653c-.087-.5.421-1 1.121-1.126s1.353.168 1.444.662zm0 0" class="cls-2" transform="translate(-.278 -.794)"/>
    </g>
</svg>
