<svg xmlns="http://www.w3.org/2000/svg" width="70" height="55.573" viewBox="0 0 70 55.573">
    <path fill="#fff" d="M39.3 55.337a2.71 2.71 0 0 0-.882-2.287l-6.536-7.874V44h20.294l15.687 34.4L81.654 44H101v1.176l-5.588 5.358a1.633 1.633 0 0 0-.621 1.568V91.47a1.633 1.633 0 0 0 .621 1.568l5.457 5.358v1.176H73.418V98.4l5.653-5.489c.556-.555.556-.719.556-1.568V59.519L63.909 99.442h-2.125l-18.3-39.923v26.757a3.692 3.692 0 0 0 1.016 3.071l7.353 8.919v1.176H31v-1.177l7.353-8.919a3.562 3.562 0 0 0 .947-3.071z" transform="translate(-31 -44)"/>
</svg>
