<svg xmlns="http://www.w3.org/2000/svg" width="70" height="56.889" viewBox="0 0 70 56.889">
    <defs>
        <clipPath id="l2zdind2na">
            <path fill="none" d="M0 50.435a28.872 28.872 0 0 0 21.261-5.947 14.373 14.373 0 0 1-13.414-9.973 14.414 14.414 0 0 0 6.484-.243A14.38 14.38 0 0 1 2.813 20.008 14.276 14.276 0 0 0 9.319 21.8 14.374 14.374 0 0 1 4.875 2.629a40.767 40.767 0 0 0 29.6 15.007 14.371 14.371 0 0 1 24.473-13.1 28.7 28.7 0 0 0 9.119-3.486 14.389 14.389 0 0 1-6.313 7.946A28.615 28.615 0 0 0 70 6.733a29.11 29.11 0 0 1-7.165 7.435c.906 20.2-14.155 42.721-40.82 42.721A40.645 40.645 0 0 1 0 50.435z"/>
        </clipPath>
    </defs>
    <g>
        <g clip-path="url(#l2zdind2na)" transform="translate(-696.068 -409.927) translate(696.068 409.927)">
            <path fill="#fff" d="M0 0H84.584V71.472H0z" transform="translate(-7.291 -7.291)"/>
        </g>
    </g>
</svg>
