<svg xmlns="http://www.w3.org/2000/svg" width="99" height="82" viewBox="0 0 99 82">
    <path fill="#fff" fill-rule="evenodd" d="M195.805 336.3l53.163-22.887c25.316-10.524 30.577-12.352 34.005-12.413a6 6 0 0 1 3.532 1.059 3.837 3.837 0 0 1 1.3 2.467 16.048 16.048 0 0 1 .152 3.587c-1.372 14.407-7.308 49.369-10.328 65.5-1.278 6.828-3.792 9.117-6.23 9.341-5.294.487-9.314-3.5-14.441-6.856l-20.344-13.658c-9-5.928-3.166-9.186 1.964-14.51 1.342-1.394 24.667-22.6 25.118-24.522a1.866 1.866 0 0 0-.424-1.611 2.106 2.106 0 0 0-1.888-.183q-1.207.274-38.452 25.4-5.457 3.745-9.886 3.65c-3.255-.07-9.516-1.839-14.17-3.352-5.709-1.855-10.246-2.836-9.851-5.985q.308-2.461 6.782-5.034z" transform="translate(-188.999 -301)"/>
</svg>
