<svg xmlns="http://www.w3.org/2000/svg" width="114" height="116" viewBox="0 0 114 116">
    <defs>
        <style>
            .cls-1{fill:#fff}
        </style>
    </defs>
    <g id="ic_whitepaper" transform="translate(-1952.029 -2883.337)">
        <g id="그룹_28" transform="translate(1952.029 2883.337)">
            <path id="패스_83" d="M1954.462 2883.337h65.714v58.427l-.636 1.625-22.014 24.325-.73.807h-44.767v-85.184zm60.846 4.868H1956.9v75.448h37.767l20.645-22.811z" class="cls-1" transform="translate(-1952.029 -2883.337)"/>
            <path id="패스_84" d="M1976.227 2942.849v-26.772h24.339v4.868h-19.471v21.9z" class="cls-1" transform="translate(-1935.032 -2860.611)"/>
            <path id="사각형_42" d="M0 0H48.677V4.868H0z" class="cls-1" transform="translate(9.735 12.169)"/>
            <path id="사각형_43" d="M0 0H48.677V4.868H0z" class="cls-1" transform="translate(9.735 24.16)"/>
            <path id="사각형_44" d="M0 0H48.677V4.868H0z" class="cls-1" transform="translate(9.735 36.24)"/>
            <path id="사각형_45" d="M0 0H48.677V4.868H0z" class="cls-1" transform="translate(9.735 48.319)"/>
            <path id="사각형_46" d="M0 0H29.206V4.868H0z" class="cls-1" transform="translate(9.735 60.399)"/>
            <path id="패스_85" d="M1999.968 2903.648h46.243v56.274l-.637 1.625-21.166 23.388-.731.809H1980.5v-35.961l4.868-5.379v36.472h36.181l19.8-21.876v-50.484h-41.375z" class="cls-1" transform="translate(-1932.212 -2869.745)"/>
            <path id="패스_86" d="M2003.765 2960.965v-25.836h23.5V2940h-18.628v20.969z" class="cls-1" transform="translate(-1915.696 -2847.399)"/>
            <path id="사각형_47" d="M0 0H36.788V4.868H0z" class="cls-1" transform="translate(67.756 46.088)"/>
            <path id="패스_87" d="M1993.256 2917.335h36.789v4.868h-40.092l2.666-2.946.637-1.626z" class="cls-1" transform="translate(-1925.5 -2859.632)"/>
            <path id="사각형_48" d="M0 0H46.805V4.868H0z" class="cls-1" transform="translate(57.74 69.319)"/>
            <path id="사각형_49" d="M0 0H46.805V4.868H0z" class="cls-1" transform="translate(57.74 80.934)"/>
            <path id="사각형_50" d="M0 0H28.083V4.868H0z" class="cls-1" transform="translate(57.868 92.549)"/>
        </g>
    </g>
</svg>
