<svg xmlns="http://www.w3.org/2000/svg" width="72" height="72" viewBox="0 0 72 72">
    <defs>
        <style>
            .cls-2{fill:#036eb8}.cls-3{fill:#231815}
        </style>
    </defs>
    <g id="logo_peer" transform="translate(-1150 -526)">
        <circle id="타원_7" cx="36" cy="36" r="36" fill="#fff" transform="translate(1150 526)"/>
        <g id="그룹_45" transform="translate(1155.402 530.488)">
            <path id="패스_95" d="M1085.279 103.389l1.247 1.247h3.526l-1.247-1.247 1.247-1.247h-3.526z" class="cls-2" transform="translate(-1064.826 -72.933)"/>
            <path id="패스_96" d="M1116.016 102.142h-3.526l1.247 1.247-1.247 1.247h3.526l1.247-1.247z" class="cls-2" transform="translate(-1076.805 -72.933)"/>
            <g id="그룹_44">
                <path id="패스_97" d="M1109.653 80.419l-2.1-2.1-28.353-28.356-30.456 30.456 28.514 28.514 1.942 1.942 1.247 1.247V89.175l-1.247 1.247-1.247-1.247v6.51l-14.02-14.02h6.51l-1.247-1.247 1.247-1.247h-6.51l14.02-14.02v6.51l1.247-1.247 1.247 1.247v-6.51l14.019 14.02h-6.51l1.247 1.247-1.247 1.247h22.944zm-31.7 18.793v6.89l-24.436-24.436h6.89zm0-37.585L1060.4 79.172h-6.89l24.436-24.436zm20.039 17.546l-17.546-17.546v-6.89l24.436 24.436z" class="cls-3" transform="translate(-1048.742 -49.963)"/>
                <path id="패스_98" d="M1087.506 106.6l7.509 7.509v-3.526l-3.983-3.983z" class="cls-3" transform="translate(-1065.806 -74.894)"/>
                <path id="패스_99" d="M1095.015 92.254v-3.527l-7.509 7.509h3.526z" class="cls-3" transform="translate(-1065.806 -67.028)"/>
                <path id="패스_100" d="M1105.375 92.254l3.983 3.983h3.526l-7.509-7.509z" class="cls-3" transform="translate(-1073.672 -67.028)"/>
                <path id="패스_101" d="M1105.375 104.635h3.983l1.247-1.247-1.247-1.247h-3.983z" class="cls-3" transform="translate(-1073.672 -72.933)"/>
                <path id="패스_102" d="M1091.578 103.389l1.247 1.247h3.983v-2.493h-3.983z" class="cls-3" transform="translate(-1067.599 -72.933)"/>
                <path id="패스_103" d="M1100.921 94.046v3.984h2.493v-3.984l-1.247-1.247z" class="cls-3" transform="translate(-1071.712 -68.82)"/>
                <path id="패스_104" d="M1100.921 110.579l1.247 1.247 1.247-1.247V106.6h-2.493z" class="cls-3" transform="translate(-1071.712 -74.894)"/>
            </g>
            <path id="패스_105" d="M1100.921 113.711v3.526l1.247 1.247 1.247-1.247v-3.526l-1.247 1.247z" class="cls-2" transform="translate(-1071.712 -78.026)"/>
            <path id="패스_106" d="M1102.167 90.027l1.247 1.247v-3.527l-1.247-1.247-1.247 1.247v3.526z" class="cls-2" transform="translate(-1071.712 -66.047)"/>
            <path id="사각형_69" d="M0 0H2.493V2.493H0z" class="cls-2" transform="translate(29.209 29.209)"/>
        </g>
    </g>
</svg>
